<?xml version="1.0" standalone="no"?>
<!DOCTYPE svg PUBLIC "-//W3C//DTD SVG 20010904//EN"
 "http://www.w3.org/TR/2001/REC-SVG-20010904/DTD/svg10.dtd">
<svg version="1.0" xmlns="http://www.w3.org/2000/svg"
 width="264.000000pt" height="264.000000pt" viewBox="0 0 264.000000 264.000000"
 preserveAspectRatio="xMidYMid meet">
<metadata>
Created by potrace 1.14, written by Peter Selinger 2001-2017
</metadata>
<g transform="translate(0.000000,264.000000) scale(0.100000,-0.100000)"
fill="#000000" stroke="none">
<path d="M479 2470 c-14 -3 -25 -16 -28 -30 -4 -14 -6 -526 -5 -1138 0 -828 4
-1116 12 -1124 13 -13 971 -16 1052 -4 210 33 379 116 517 256 93 94 151 197
187 331 13 49 14 234 2 284 -21 83 -99 245 -118 245 -5 0 -8 6 -8 14 0 8 -3
16 -7 18 -5 2 -27 24 -50 50 l-42 47 14 38 c7 21 23 63 35 93 11 30 23 73 26
95 10 69 7 212 -6 267 -17 75 -81 203 -134 270 -44 56 -171 168 -189 168 -5 0
-21 8 -35 18 -36 25 -142 66 -227 87 -61 16 -125 18 -522 19 -248 1 -462 -1
-474 -4z m945 -304 c68 -20 142 -53 170 -76 111 -89 173 -206 171 -325 -1 -78
-12 -124 -35 -154 l-18 -25 -73 18 c-155 35 -201 39 -555 40 -223 1 -305 4
-316 13 -12 11 -15 52 -14 256 1 175 4 248 13 258 10 13 60 15 305 14 250 -1
302 -4 352 -19z m371 -1013 c14 -16 40 -57 58 -93 29 -58 32 -73 32 -155 0
-80 -3 -97 -31 -155 -17 -36 -46 -83 -65 -104 -32 -37 -131 -116 -145 -116 -3
0 -20 -6 -37 -14 -99 -44 -153 -50 -499 -50 -230 -1 -300 2 -310 12 -18 18
-20 536 -2 560 11 15 46 17 311 19 164 1 312 4 328 6 41 6 116 26 140 37 31
15 79 33 94 36 8 1 17 7 20 12 5 8 55 29 73 31 4 1 19 -11 33 -26z"/>
</g>
</svg>
